<svg xmlns="http://www.w3.org/2000/svg" xmlns:xlink="http://www.w3.org/1999/xlink" width="714.22" height="183.56"><defs><symbol id="a" viewBox="0 0 464.22 82.36"><path d="M112.84 24.07v31c0 8-4.14 12.88-11.24 12.89s-11.32-4.8-11.33-12.86v-31H74.91v32.75c0 15.3 10.68 25.52 26.69 25.5s26.57-10.25 26.56-25.55V24.05zM176 24v31c0 8-4.15 12.87-11.24 12.88S153.39 63.09 153.38 55V24h-15.33v32.74c0 15.31 10.68 25.52 26.69 25.51S191.32 72 191.31 56.74V23.99zm57.41-1.4a24.34 24.34 0 0 0-18.77 8.4l-3-7h-10.51l.06 56.67h15.32V50.88c0-9.12 4.8-14.78 12.71-14.79 6.63 0 9.88 4.12 9.89 12.69v31.87h15.33V46.3c-.05-14.4-8.11-23.71-21.03-23.7zm30.86 1.31.05 56.68 15.33-.02-.06-56.68-15.32.02zM27.79 7.37 0 7.4v73.47h27.87C49.4 80.81 64.16 65.28 64.14 44S49.41 7.35 27.79 7.37zm-.34 58.72H15.32v-44h12.09c12.62 0 21.39 9 21.4 21.87s-8.73 22.11-21.36 22.13zM363.7 22.21c-17.55 0-30.62 12.77-30.6 30s13.11 29.93 30.67 29.91 30.62-12.89 30.6-30-13.2-29.93-30.67-29.91zm.05 45.47c-8.84 0-15.11-6.34-15.12-15.52s6.25-15.54 15.09-15.55 15.11 6.39 15.12 15.52-6.25 15.54-15.09 15.55zm91.98-51.25a8.24 8.24 0 0 0 8.49-8.13 8.49 8.49 0 0 0-17 0 8.19 8.19 0 0 0 8.51 8.13zm-7.69 7.38.06 56.67 15.32-.01-.06-56.68-15.32.02zM321 66.88c-5.58 0-8.73-3.14-8.73-8.61V36.18h15.33V23.85H312V9.07h-3L286.65 32.9v3.31h10.25v24.12c0 12.57 7.69 20.23 20.16 20.21H328V66.88zM272 0a8.18 8.18 0 1 0 8.48 8.22A8.2 8.2 0 0 0 272 0zm161.18 23.42c-7.28 0-12.4 2.26-16.43 7.28L414 23.76h-9.8l.05 56.67h15.33V50.98c0-9.26 3.4-13.09 12-13.1h6.65V23.42z" fill="#fff"/></symbol><symbol id="b" viewBox="0 0 201.17 183.56"><path d="M158.26 104.21c20.64-20.63 27.59-27.58 27.59-45.55a43.37 43.37 0 0 0-74-30.66L66 73.8l12.07 12.06C86 93.8 94 98.17 100.53 98.17a24.44 24.44 0 0 0 17.22-41.73l-9.08-9.08 10.84-10.84 9.08 9.08a39.77 39.77 0 0 1-28 67.89h-.07c-10.8 0-22.31-5.8-33.3-16.79L44.35 73.8 101 17.16a58.69 58.69 0 0 1 100.18 41.5c0 24.32-10.72 35-32.08 56.39l-.71.71-67.79 67.8L32.07 115C10.72 93.69 0 83 0 58.66a58.69 58.69 0 0 1 91.74-48.5L80.65 21.25a43.38 43.38 0 0 0-65.33 37.41c0 18 7 24.92 27.59 45.55l57.68 57.68 57.67-57.68" fill="#00c4b1"/></symbol></defs><use width="464.22" height="82.36" transform="translate(250 48.87)" xlink:href="#a"/><use width="201.17" height="183.56" xlink:href="#b"/></svg>